<svg version="1.1" xmlns="http://www.w3.org/2000/svg" xmlns:xlink="http://www.w3.org/1999/xlink" width="737.8666666666666" height="610"><defs/><g transform="translate(0,0)"><g><rect fill="#FFFFFF" stroke="none" x="0" y="0" width="737.8666666666666" height="610"/></g><g transform="translate(0,0) matrix(1,0,0,1,70,30)"><g><g transform="translate(0,0) scale(2.730666666666667,5.6)"><g><g transform="scale(0.36621093749999994,0.17857142857142858)"><path fill="#FFFFFF" stroke="#000000" d="M 0 0 L 273.0666666666667 0 L 273.0666666666667 560 L 0 560 L 0 0 L 10 -10 L 283.0666666666667 -10 L 273.0666666666667 0 L 283.0666666666667 -10 L 283.0666666666667 549.9999999999999 L 273.0666666666667 560" stroke-linejoin="round" stroke-miterlimit="10" stroke-width="2"/></g></g></g></g></g><g transform="scale(1,1) matrix(1,0,0,1,73.6408888888889,30) translate(8,8)"><text fill="#000000" stroke="none" font-family="Arial" font-size="12px" font-style="normal" font-weight="normal" text-decoration="none" x="99.8924444444445" y="11">Zentyal 1</text></g><g transform="translate(0,0) matrix(1,0,0,1,141.8,70)"><g><g><g><path fill="none" stroke="none" d="M 0 0 L 120 0 Q 120 0 120 0 L 120 70 Q 120 70 120 70 L 0 70 Q 0 70 0 70 L 0 0 Q 0 0 0 0 Z"/><g transform="scale(1,1)"><path fill="#FFFFFF" stroke="#000000" d="M 0 0 L 120 0 Q 120 0 120 0 L 120 70 Q 120 70 120 70 L 0 70 Q 0 70 0 70 L 0 0 Q 0 0 0 0 Z" stroke-miterlimit="10" stroke-width="2"/></g></g><g transform="translate(85,0) translate(0,5)"><g transform="translate(0,0) scale(0.3,0.2)"><g><path fill="#FFFFFF" stroke="none" d="M 10 0 L 100 0 Q 100 0 100 0 L 100 100 Q 100 100 100 100 L 10 100 Q 10 100 10 100 L 10 0 Q 10 0 10 0 Z"/><g transform="scale(3.333333,5)"><path fill="none" stroke="#000000" d="M 3 0 L 30 0 Q 30 0 30 0 L 30 20 Q 30 20 30 20 L 3 20 Q 3 20 3 20 L 3 0 Q 3 0 3 0 Z" stroke-miterlimit="10"/></g></g><g><path fill="#FFFFFF" stroke="none" d="M 0 16.67 L 20 16.67 Q 20 16.67 20 16.67 L 20 33.34 Q 20 33.34 20 33.34 L 0 33.34 Q 0 33.34 0 33.34 L 0 16.67 Q 0 16.67 0 16.67 Z"/><g transform="scale(3.333333,5)"><path fill="none" stroke="#000000" d="M 0 3.334 L 6 3.334 Q 6 3.334 6 3.334 L 6 6.668 Q 6 6.668 6 6.668 L 0 6.668 Q 0 6.668 0 6.668 L 0 3.334 Q 0 3.334 0 3.334 Z" stroke-miterlimit="10"/></g></g><g><path fill="#FFFFFF" stroke="none" d="M 0 66.67 L 20 66.67 Q 20 66.67 20 66.67 L 20 83.34 Q 20 83.34 20 83.34 L 0 83.34 Q 0 83.34 0 83.34 L 0 66.67 Q 0 66.67 0 66.67 Z"/><g transform="scale(3.333333,5)"><path fill="none" stroke="#000000" d="M 0 13.334 L 6 13.334 Q 6 13.334 6 13.334 L 6 16.668 Q 6 16.668 6 16.668 L 0 16.668 Q 0 16.668 0 16.668 L 0 13.334 Q 0 13.334 0 13.334 Z" stroke-miterlimit="10"/></g></g></g></g></g></g></g><g transform="scale(1,1) matrix(1,0,0,1,143.8,70) translate(8,28)"><text fill="#000000" stroke="none" font-family="Arial" font-size="12px" font-style="normal" font-weight="normal" text-decoration="none" x="26" y="11">HAProxy</text></g><g transform="translate(0,0) matrix(1,0,0,1,141.8,185)"><g><g><g><path fill="none" stroke="none" d="M 0 0 L 120 0 Q 120 0 120 0 L 120 70 Q 120 70 120 70 L 0 70 Q 0 70 0 70 L 0 0 Q 0 0 0 0 Z"/><g transform="scale(1,1)"><path fill="#FFFFFF" stroke="#000000" d="M 0 0 L 120 0 Q 120 0 120 0 L 120 70 Q 120 70 120 70 L 0 70 Q 0 70 0 70 L 0 0 Q 0 0 0 0 Z" stroke-miterlimit="10" stroke-width="2"/></g></g><g transform="translate(85,0) translate(0,5)"><g transform="translate(0,0) scale(0.3,0.2)"><g><path fill="#FFFFFF" stroke="none" d="M 10 0 L 100 0 Q 100 0 100 0 L 100 100 Q 100 100 100 100 L 10 100 Q 10 100 10 100 L 10 0 Q 10 0 10 0 Z"/><g transform="scale(3.333333,5)"><path fill="none" stroke="#000000" d="M 3 0 L 30 0 Q 30 0 30 0 L 30 20 Q 30 20 30 20 L 3 20 Q 3 20 3 20 L 3 0 Q 3 0 3 0 Z" stroke-miterlimit="10"/></g></g><g><path fill="#FFFFFF" stroke="none" d="M 0 16.67 L 20 16.67 Q 20 16.67 20 16.67 L 20 33.34 Q 20 33.34 20 33.34 L 0 33.34 Q 0 33.34 0 33.34 L 0 16.67 Q 0 16.67 0 16.67 Z"/><g transform="scale(3.333333,5)"><path fill="none" stroke="#000000" d="M 0 3.334 L 6 3.334 Q 6 3.334 6 3.334 L 6 6.668 Q 6 6.668 6 6.668 L 0 6.668 Q 0 6.668 0 6.668 L 0 3.334 Q 0 3.334 0 3.334 Z" stroke-miterlimit="10"/></g></g><g><path fill="#FFFFFF" stroke="none" d="M 0 66.67 L 20 66.67 Q 20 66.67 20 66.67 L 20 83.34 Q 20 83.34 20 83.34 L 0 83.34 Q 0 83.34 0 83.34 L 0 66.67 Q 0 66.67 0 66.67 Z"/><g transform="scale(3.333333,5)"><path fill="none" stroke="#000000" d="M 0 13.334 L 6 13.334 Q 6 13.334 6 13.334 L 6 16.668 Q 6 16.668 6 16.668 L 0 16.668 Q 0 16.668 0 16.668 L 0 13.334 Q 0 13.334 0 13.334 Z" stroke-miterlimit="10"/></g></g></g></g></g></g></g><g transform="scale(1,1) matrix(1,0,0,1,143.8,185) translate(8,28)"><text fill="#000000" stroke="none" font-family="Arial" font-size="12px" font-style="normal" font-weight="normal" text-decoration="none" x="17.5" y="11">PSGI server</text></g><g transform="translate(0,0) matrix(1,0,0,1,78.80000000000001,340)"><g><g><g><path fill="none" stroke="none" d="M 0 0 L 120 0 Q 120 0 120 0 L 120 70 Q 120 70 120 70 L 0 70 Q 0 70 0 70 L 0 0 Q 0 0 0 0 Z"/><g transform="scale(1,1)"><path fill="#FFFFFF" stroke="#000000" d="M 0 0 L 120 0 Q 120 0 120 0 L 120 70 Q 120 70 120 70 L 0 70 Q 0 70 0 70 L 0 0 Q 0 0 0 0 Z" stroke-miterlimit="10" stroke-width="2"/></g></g><g transform="translate(85,0) translate(0,5)"><g transform="translate(0,0) scale(0.3,0.2)"><g><path fill="#FFFFFF" stroke="none" d="M 10 0 L 100 0 Q 100 0 100 0 L 100 100 Q 100 100 100 100 L 10 100 Q 10 100 10 100 L 10 0 Q 10 0 10 0 Z"/><g transform="scale(3.333333,5)"><path fill="none" stroke="#000000" d="M 3 0 L 30 0 Q 30 0 30 0 L 30 20 Q 30 20 30 20 L 3 20 Q 3 20 3 20 L 3 0 Q 3 0 3 0 Z" stroke-miterlimit="10"/></g></g><g><path fill="#FFFFFF" stroke="none" d="M 0 16.67 L 20 16.67 Q 20 16.67 20 16.67 L 20 33.34 Q 20 33.34 20 33.34 L 0 33.34 Q 0 33.34 0 33.34 L 0 16.67 Q 0 16.67 0 16.67 Z"/><g transform="scale(3.333333,5)"><path fill="none" stroke="#000000" d="M 0 3.334 L 6 3.334 Q 6 3.334 6 3.334 L 6 6.668 Q 6 6.668 6 6.668 L 0 6.668 Q 0 6.668 0 6.668 L 0 3.334 Q 0 3.334 0 3.334 Z" stroke-miterlimit="10"/></g></g><g><path fill="#FFFFFF" stroke="none" d="M 0 66.67 L 20 66.67 Q 20 66.67 20 66.67 L 20 83.34 Q 20 83.34 20 83.34 L 0 83.34 Q 0 83.34 0 83.34 L 0 66.67 Q 0 66.67 0 66.67 Z"/><g transform="scale(3.333333,5)"><path fill="none" stroke="#000000" d="M 0 13.334 L 6 13.334 Q 6 13.334 6 13.334 L 6 16.668 Q 6 16.668 6 16.668 L 0 16.668 Q 0 16.668 0 16.668 L 0 13.334 Q 0 13.334 0 13.334 Z" stroke-miterlimit="10"/></g></g></g></g></g></g></g><g transform="scale(1,1) matrix(1,0,0,1,80.80000000000001,340) translate(8,28)"><text fill="#000000" stroke="none" font-family="Arial" font-size="12px" font-style="normal" font-weight="normal" text-decoration="none" x="24" y="11">Corosync</text></g><g transform="translate(0,0) matrix(1,0,0,1,217.06666666666672,340)"><g><g><g><path fill="none" stroke="none" d="M 0 0 L 120 0 Q 120 0 120 0 L 120 70 Q 120 70 120 70 L 0 70 Q 0 70 0 70 L 0 0 Q 0 0 0 0 Z"/><g transform="scale(1,1)"><path fill="#FFFFFF" stroke="#000000" d="M 0 0 L 120 0 Q 120 0 120 0 L 120 70 Q 120 70 120 70 L 0 70 Q 0 70 0 70 L 0 0 Q 0 0 0 0 Z" stroke-miterlimit="10" stroke-width="2"/></g></g><g transform="translate(85,0) translate(0,5)"><g transform="translate(0,0) scale(0.3,0.2)"><g><path fill="#FFFFFF" stroke="none" d="M 10 0 L 100 0 Q 100 0 100 0 L 100 100 Q 100 100 100 100 L 10 100 Q 10 100 10 100 L 10 0 Q 10 0 10 0 Z"/><g transform="scale(3.333333,5)"><path fill="none" stroke="#000000" d="M 3 0 L 30 0 Q 30 0 30 0 L 30 20 Q 30 20 30 20 L 3 20 Q 3 20 3 20 L 3 0 Q 3 0 3 0 Z" stroke-miterlimit="10"/></g></g><g><path fill="#FFFFFF" stroke="none" d="M 0 16.67 L 20 16.67 Q 20 16.67 20 16.67 L 20 33.34 Q 20 33.34 20 33.34 L 0 33.34 Q 0 33.34 0 33.34 L 0 16.67 Q 0 16.67 0 16.67 Z"/><g transform="scale(3.333333,5)"><path fill="none" stroke="#000000" d="M 0 3.334 L 6 3.334 Q 6 3.334 6 3.334 L 6 6.668 Q 6 6.668 6 6.668 L 0 6.668 Q 0 6.668 0 6.668 L 0 3.334 Q 0 3.334 0 3.334 Z" stroke-miterlimit="10"/></g></g><g><path fill="#FFFFFF" stroke="none" d="M 0 66.67 L 20 66.67 Q 20 66.67 20 66.67 L 20 83.34 Q 20 83.34 20 83.34 L 0 83.34 Q 0 83.34 0 83.34 L 0 66.67 Q 0 66.67 0 66.67 Z"/><g transform="scale(3.333333,5)"><path fill="none" stroke="#000000" d="M 0 13.334 L 6 13.334 Q 6 13.334 6 13.334 L 6 16.668 Q 6 16.668 6 16.668 L 0 16.668 Q 0 16.668 0 16.668 L 0 13.334 Q 0 13.334 0 13.334 Z" stroke-miterlimit="10"/></g></g></g></g></g></g></g><g transform="scale(1,1) matrix(1,0,0,1,219.06666666666672,340) translate(8,28)"><text fill="#000000" stroke="none" font-family="Arial" font-size="12px" font-style="normal" font-weight="normal" text-decoration="none" x="34" y="11">Redis</text></g><g transform="matrix(1,0,0,1,134.8,251)"><g transform="translate(0,0)"><g transform="translate(-120.80000000000001,-250) translate(-14,-1) matrix(1,0,0,1,0,0)"><g><path fill="none" stroke="#000000" d="M 138.8 340 L 138.8 297.5 L 201.8 297.5 L 201.8 255" stroke-miterlimit="10"/></g></g></g></g><g transform="matrix(1,0,0,1,197.8,251)"><g transform="translate(0,0)"><g transform="translate(-276.8,-318) translate(79,67) matrix(1,0,0,1,0,0)"><g><path fill="none" stroke="#000000" d="M 201.8 255 L 201.8 297.5 L 277.0666666666667 297.5 L 277.0666666666667 340" stroke-miterlimit="10"/></g></g></g></g><g transform="matrix(1,0,0,1,197.8,136)"><g transform="translate(0,0)"><g transform="translate(-189.8,-217) translate(-8,81) matrix(1,0,0,1,0,0)"><g><path fill="none" stroke="#000000" d="M 201.8 140 L 201.8 155 L 201.8 170 L 201.8 185" stroke-miterlimit="10"/></g></g></g></g><g transform="translate(0,0) matrix(1,0,0,1,439.0871111111112,30)"><g><g transform="translate(0,0) scale(2.730666666666666,5.6)"><g><g transform="scale(0.36621093750000006,0.17857142857142858)"><path fill="#FFFFFF" stroke="#000000" d="M 0 0 L 273.0666666666666 0 L 273.0666666666666 560 L 0 560 L 0 0 L 10 -10 L 283.0666666666666 -10 L 273.0666666666666 0 L 283.0666666666666 -10 L 283.0666666666666 549.9999999999999 L 273.0666666666666 560" stroke-linejoin="round" stroke-miterlimit="10" stroke-width="2"/></g></g></g></g></g><g transform="scale(1,1) matrix(1,0,0,1,442.72800000000007,30) translate(8,8)"><text fill="#000000" stroke="none" font-family="Arial" font-size="12px" font-style="normal" font-weight="normal" text-decoration="none" x="99.89244444444438" y="11">Zentyal 2</text></g><g transform="translate(0,0) matrix(1,0,0,1,514.8,70)"><g><g><g><path fill="none" stroke="none" d="M 0 0 L 120 0 Q 120 0 120 0 L 120 70 Q 120 70 120 70 L 0 70 Q 0 70 0 70 L 0 0 Q 0 0 0 0 Z"/><g transform="scale(1,1)"><path fill="#FFFFFF" stroke="#000000" d="M 0 0 L 120 0 Q 120 0 120 0 L 120 70 Q 120 70 120 70 L 0 70 Q 0 70 0 70 L 0 0 Q 0 0 0 0 Z" stroke-miterlimit="10" stroke-width="2"/></g></g><g transform="translate(85,0) translate(0,5)"><g transform="translate(0,0) scale(0.3,0.2)"><g><path fill="#FFFFFF" stroke="none" d="M 10 0 L 100 0 Q 100 0 100 0 L 100 100 Q 100 100 100 100 L 10 100 Q 10 100 10 100 L 10 0 Q 10 0 10 0 Z"/><g transform="scale(3.333333,5)"><path fill="none" stroke="#000000" d="M 3 0 L 30 0 Q 30 0 30 0 L 30 20 Q 30 20 30 20 L 3 20 Q 3 20 3 20 L 3 0 Q 3 0 3 0 Z" stroke-miterlimit="10"/></g></g><g><path fill="#FFFFFF" stroke="none" d="M 0 16.67 L 20 16.67 Q 20 16.67 20 16.67 L 20 33.34 Q 20 33.34 20 33.34 L 0 33.34 Q 0 33.34 0 33.34 L 0 16.67 Q 0 16.67 0 16.67 Z"/><g transform="scale(3.333333,5)"><path fill="none" stroke="#000000" d="M 0 3.334 L 6 3.334 Q 6 3.334 6 3.334 L 6 6.668 Q 6 6.668 6 6.668 L 0 6.668 Q 0 6.668 0 6.668 L 0 3.334 Q 0 3.334 0 3.334 Z" stroke-miterlimit="10"/></g></g><g><path fill="#FFFFFF" stroke="none" d="M 0 66.67 L 20 66.67 Q 20 66.67 20 66.67 L 20 83.34 Q 20 83.34 20 83.34 L 0 83.34 Q 0 83.34 0 83.34 L 0 66.67 Q 0 66.67 0 66.67 Z"/><g transform="scale(3.333333,5)"><path fill="none" stroke="#000000" d="M 0 13.334 L 6 13.334 Q 6 13.334 6 13.334 L 6 16.668 Q 6 16.668 6 16.668 L 0 16.668 Q 0 16.668 0 16.668 L 0 13.334 Q 0 13.334 0 13.334 Z" stroke-miterlimit="10"/></g></g></g></g></g></g></g><g transform="scale(1,1) matrix(1,0,0,1,516.8,70) translate(8,21)"><text fill="#000000" stroke="none" font-family="Arial" font-size="12px" font-style="normal" font-weight="normal" text-decoration="none" x="20" y="11">WebAdmin</text><text fill="#000000" stroke="none" font-family="Arial" font-size="12px" font-style="normal" font-weight="normal" text-decoration="none" x="7" y="25">(Save changes)</text></g><g transform="matrix(1,0,0,1,257.8,101)"><g transform="translate(0,0)"><g transform="translate(-398.8,-121) translate(141,20) matrix(1,0,0,1,0,0)"><g><path fill="none" stroke="#000000" d="M 261.8 105 L 346.1333333333333 105 L 430.46666666666664 105 L 514.8 105" stroke-miterlimit="10"/></g></g></g></g><g transform="translate(0,0) matrix(1,0,0,1,514.8,185)"><g><g><g><path fill="none" stroke="none" d="M 0 0 L 120 0 Q 120 0 120 0 L 120 70 Q 120 70 120 70 L 0 70 Q 0 70 0 70 L 0 0 Q 0 0 0 0 Z"/><g transform="scale(1,1)"><path fill="#FFFFFF" stroke="#000000" d="M 0 0 L 120 0 Q 120 0 120 0 L 120 70 Q 120 70 120 70 L 0 70 Q 0 70 0 70 L 0 0 Q 0 0 0 0 Z" stroke-miterlimit="10" stroke-width="2"/></g></g><g transform="translate(85,0) translate(0,5)"><g transform="translate(0,0) scale(0.3,0.2)"><g><path fill="#FFFFFF" stroke="none" d="M 10 0 L 100 0 Q 100 0 100 0 L 100 100 Q 100 100 100 100 L 10 100 Q 10 100 10 100 L 10 0 Q 10 0 10 0 Z"/><g transform="scale(3.333333,5)"><path fill="none" stroke="#000000" d="M 3 0 L 30 0 Q 30 0 30 0 L 30 20 Q 30 20 30 20 L 3 20 Q 3 20 3 20 L 3 0 Q 3 0 3 0 Z" stroke-miterlimit="10"/></g></g><g><path fill="#FFFFFF" stroke="none" d="M 0 16.67 L 20 16.67 Q 20 16.67 20 16.67 L 20 33.34 Q 20 33.34 20 33.34 L 0 33.34 Q 0 33.34 0 33.34 L 0 16.67 Q 0 16.67 0 16.67 Z"/><g transform="scale(3.333333,5)"><path fill="none" stroke="#000000" d="M 0 3.334 L 6 3.334 Q 6 3.334 6 3.334 L 6 6.668 Q 6 6.668 6 6.668 L 0 6.668 Q 0 6.668 0 6.668 L 0 3.334 Q 0 3.334 0 3.334 Z" stroke-miterlimit="10"/></g></g><g><path fill="#FFFFFF" stroke="none" d="M 0 66.67 L 20 66.67 Q 20 66.67 20 66.67 L 20 83.34 Q 20 83.34 20 83.34 L 0 83.34 Q 0 83.34 0 83.34 L 0 66.67 Q 0 66.67 0 66.67 Z"/><g transform="scale(3.333333,5)"><path fill="none" stroke="#000000" d="M 0 13.334 L 6 13.334 Q 6 13.334 6 13.334 L 6 16.668 Q 6 16.668 6 16.668 L 0 16.668 Q 0 16.668 0 16.668 L 0 13.334 Q 0 13.334 0 13.334 Z" stroke-miterlimit="10"/></g></g></g></g></g></g></g><g transform="scale(1,1) matrix(1,0,0,1,516.8,185) translate(8,28)"><text fill="#000000" stroke="none" font-family="Arial" font-size="12px" font-style="normal" font-weight="normal" text-decoration="none" x="26" y="11">HAProxy</text></g><g transform="translate(0,0) matrix(1,0,0,1,514.8,290)"><g><g><g><path fill="none" stroke="none" d="M 0 0 L 120 0 Q 120 0 120 0 L 120 70 Q 120 70 120 70 L 0 70 Q 0 70 0 70 L 0 0 Q 0 0 0 0 Z"/><g transform="scale(1,1)"><path fill="#FFFFFF" stroke="#000000" d="M 0 0 L 120 0 Q 120 0 120 0 L 120 70 Q 120 70 120 70 L 0 70 Q 0 70 0 70 L 0 0 Q 0 0 0 0 Z" stroke-miterlimit="10" stroke-width="2"/></g></g><g transform="translate(85,0) translate(0,5)"><g transform="translate(0,0) scale(0.3,0.2)"><g><path fill="#FFFFFF" stroke="none" d="M 10 0 L 100 0 Q 100 0 100 0 L 100 100 Q 100 100 100 100 L 10 100 Q 10 100 10 100 L 10 0 Q 10 0 10 0 Z"/><g transform="scale(3.333333,5)"><path fill="none" stroke="#000000" d="M 3 0 L 30 0 Q 30 0 30 0 L 30 20 Q 30 20 30 20 L 3 20 Q 3 20 3 20 L 3 0 Q 3 0 3 0 Z" stroke-miterlimit="10"/></g></g><g><path fill="#FFFFFF" stroke="none" d="M 0 16.67 L 20 16.67 Q 20 16.67 20 16.67 L 20 33.34 Q 20 33.34 20 33.34 L 0 33.34 Q 0 33.34 0 33.34 L 0 16.67 Q 0 16.67 0 16.67 Z"/><g transform="scale(3.333333,5)"><path fill="none" stroke="#000000" d="M 0 3.334 L 6 3.334 Q 6 3.334 6 3.334 L 6 6.668 Q 6 6.668 6 6.668 L 0 6.668 Q 0 6.668 0 6.668 L 0 3.334 Q 0 3.334 0 3.334 Z" stroke-miterlimit="10"/></g></g><g><path fill="#FFFFFF" stroke="none" d="M 0 66.67 L 20 66.67 Q 20 66.67 20 66.67 L 20 83.34 Q 20 83.34 20 83.34 L 0 83.34 Q 0 83.34 0 83.34 L 0 66.67 Q 0 66.67 0 66.67 Z"/><g transform="scale(3.333333,5)"><path fill="none" stroke="#000000" d="M 0 13.334 L 6 13.334 Q 6 13.334 6 13.334 L 6 16.668 Q 6 16.668 6 16.668 L 0 16.668 Q 0 16.668 0 16.668 L 0 13.334 Q 0 13.334 0 13.334 Z" stroke-miterlimit="10"/></g></g></g></g></g></g></g><g transform="scale(1,1) matrix(1,0,0,1,516.8,290) translate(8,28)"><text fill="#000000" stroke="none" font-family="Arial" font-size="12px" font-style="normal" font-weight="normal" text-decoration="none" x="17.5" y="11">PSGI server</text></g><g transform="translate(0,0) matrix(1,0,0,1,451.8,405)"><g><g><g><path fill="none" stroke="none" d="M 0 0 L 120 0 Q 120 0 120 0 L 120 70 Q 120 70 120 70 L 0 70 Q 0 70 0 70 L 0 0 Q 0 0 0 0 Z"/><g transform="scale(1,1)"><path fill="#FFFFFF" stroke="#000000" d="M 0 0 L 120 0 Q 120 0 120 0 L 120 70 Q 120 70 120 70 L 0 70 Q 0 70 0 70 L 0 0 Q 0 0 0 0 Z" stroke-miterlimit="10" stroke-width="2"/></g></g><g transform="translate(85,0) translate(0,5)"><g transform="translate(0,0) scale(0.3,0.2)"><g><path fill="#FFFFFF" stroke="none" d="M 10 0 L 100 0 Q 100 0 100 0 L 100 100 Q 100 100 100 100 L 10 100 Q 10 100 10 100 L 10 0 Q 10 0 10 0 Z"/><g transform="scale(3.333333,5)"><path fill="none" stroke="#000000" d="M 3 0 L 30 0 Q 30 0 30 0 L 30 20 Q 30 20 30 20 L 3 20 Q 3 20 3 20 L 3 0 Q 3 0 3 0 Z" stroke-miterlimit="10"/></g></g><g><path fill="#FFFFFF" stroke="none" d="M 0 16.67 L 20 16.67 Q 20 16.67 20 16.67 L 20 33.34 Q 20 33.34 20 33.34 L 0 33.34 Q 0 33.34 0 33.34 L 0 16.67 Q 0 16.67 0 16.67 Z"/><g transform="scale(3.333333,5)"><path fill="none" stroke="#000000" d="M 0 3.334 L 6 3.334 Q 6 3.334 6 3.334 L 6 6.668 Q 6 6.668 6 6.668 L 0 6.668 Q 0 6.668 0 6.668 L 0 3.334 Q 0 3.334 0 3.334 Z" stroke-miterlimit="10"/></g></g><g><path fill="#FFFFFF" stroke="none" d="M 0 66.67 L 20 66.67 Q 20 66.67 20 66.67 L 20 83.34 Q 20 83.34 20 83.34 L 0 83.34 Q 0 83.34 0 83.34 L 0 66.67 Q 0 66.67 0 66.67 Z"/><g transform="scale(3.333333,5)"><path fill="none" stroke="#000000" d="M 0 13.334 L 6 13.334 Q 6 13.334 6 13.334 L 6 16.668 Q 6 16.668 6 16.668 L 0 16.668 Q 0 16.668 0 16.668 L 0 13.334 Q 0 13.334 0 13.334 Z" stroke-miterlimit="10"/></g></g></g></g></g></g></g><g transform="scale(1,1) matrix(1,0,0,1,453.8,405) translate(8,28)"><text fill="#000000" stroke="none" font-family="Arial" font-size="12px" font-style="normal" font-weight="normal" text-decoration="none" x="24" y="11">Corosync</text></g><g transform="translate(0,0) matrix(1,0,0,1,591.8666666666666,405)"><g><g><g><path fill="none" stroke="none" d="M 0 0 L 120 0 Q 120 0 120 0 L 120 70 Q 120 70 120 70 L 0 70 Q 0 70 0 70 L 0 0 Q 0 0 0 0 Z"/><g transform="scale(1,1)"><path fill="#FFFFFF" stroke="#000000" d="M 0 0 L 120 0 Q 120 0 120 0 L 120 70 Q 120 70 120 70 L 0 70 Q 0 70 0 70 L 0 0 Q 0 0 0 0 Z" stroke-miterlimit="10" stroke-width="2"/></g></g><g transform="translate(85,0) translate(0,5)"><g transform="translate(0,0) scale(0.3,0.2)"><g><path fill="#FFFFFF" stroke="none" d="M 10 0 L 100 0 Q 100 0 100 0 L 100 100 Q 100 100 100 100 L 10 100 Q 10 100 10 100 L 10 0 Q 10 0 10 0 Z"/><g transform="scale(3.333333,5)"><path fill="none" stroke="#000000" d="M 3 0 L 30 0 Q 30 0 30 0 L 30 20 Q 30 20 30 20 L 3 20 Q 3 20 3 20 L 3 0 Q 3 0 3 0 Z" stroke-miterlimit="10"/></g></g><g><path fill="#FFFFFF" stroke="none" d="M 0 16.67 L 20 16.67 Q 20 16.67 20 16.67 L 20 33.34 Q 20 33.34 20 33.34 L 0 33.34 Q 0 33.34 0 33.34 L 0 16.67 Q 0 16.67 0 16.67 Z"/><g transform="scale(3.333333,5)"><path fill="none" stroke="#000000" d="M 0 3.334 L 6 3.334 Q 6 3.334 6 3.334 L 6 6.668 Q 6 6.668 6 6.668 L 0 6.668 Q 0 6.668 0 6.668 L 0 3.334 Q 0 3.334 0 3.334 Z" stroke-miterlimit="10"/></g></g><g><path fill="#FFFFFF" stroke="none" d="M 0 66.67 L 20 66.67 Q 20 66.67 20 66.67 L 20 83.34 Q 20 83.34 20 83.34 L 0 83.34 Q 0 83.34 0 83.34 L 0 66.67 Q 0 66.67 0 66.67 Z"/><g transform="scale(3.333333,5)"><path fill="none" stroke="#000000" d="M 0 13.334 L 6 13.334 Q 6 13.334 6 13.334 L 6 16.668 Q 6 16.668 6 16.668 L 0 16.668 Q 0 16.668 0 16.668 L 0 13.334 Q 0 13.334 0 13.334 Z" stroke-miterlimit="10"/></g></g></g></g></g></g></g><g transform="scale(1,1) matrix(1,0,0,1,593.8666666666666,405) translate(8,28)"><text fill="#000000" stroke="none" font-family="Arial" font-size="12px" font-style="normal" font-weight="normal" text-decoration="none" x="34" y="11">Redis</text></g><g transform="matrix(1,0,0,1,570.8,251)"><g transform="translate(0,0)"><g transform="translate(-531.8,-281) translate(-39,30) matrix(1,0,0,1,0,0)"><g><path fill="none" stroke="#000000" d="M 574.8 255 L 574.8 266.6666666666667 L 574.8 278.3333333333333 L 574.8 290" stroke-miterlimit="10"/></g></g></g></g><g transform="matrix(1,0,0,1,507.8,356)"><g transform="translate(0,0)"><g transform="translate(-455.8,-376) translate(-52,20) matrix(1,0,0,1,0,0)"><g><path fill="none" stroke="#000000" d="M 511.8 405 L 511.8 382.5 L 574.8 382.5 L 574.8 360" stroke-miterlimit="10"/></g></g></g></g><g transform="matrix(1,0,0,1,570.8,356)"><g transform="translate(0,0)"><g transform="translate(-611.8,-396) translate(41,40) matrix(1,0,0,1,0,0)"><g><path fill="none" stroke="#000000" d="M 574.8 360 L 574.8 382.5 L 651.8666666666666 382.5 L 651.8666666666666 405" stroke-miterlimit="10"/></g></g></g></g><g transform="matrix(1,0,0,1,257.8,216)"><g transform="translate(0,0)"><g transform="translate(-305.8,-225) translate(48,9) matrix(1,0,0,1,0,0)"><g><path fill="none" stroke="#000000" d="M 261.8 220 L 346.1333333333333 220 L 430.46666666666664 220 L 514.8 220" stroke-miterlimit="10"/></g></g></g></g><g transform="scale(1,1) matrix(1,0,0,1,364.1333333333334,91) translate(2,0)"><text fill="#000000" stroke="none" font-family="Arial" font-size="12px" font-style="normal" font-weight="normal" text-decoration="none" x="18" y="11">HTTPS</text></g><g transform="scale(1,1) matrix(1,0,0,1,330.6333333333334,206) translate(2,0)"><text fill="#000000" stroke="none" font-family="Arial" font-size="12px" font-style="normal" font-weight="normal" text-decoration="none" x="53.5" y="11">HTTPS</text></g><g transform="translate(0,0) matrix(1,0,0,1,141.8,440)"><g><g><g><path fill="none" stroke="none" d="M 0 0 L 120 0 Q 120 0 120 0 L 120 70 Q 120 70 120 70 L 0 70 Q 0 70 0 70 L 0 0 Q 0 0 0 0 Z"/><g transform="scale(1,1)"><path fill="#FFFFFF" stroke="#000000" d="M 0 0 L 120 0 Q 120 0 120 0 L 120 70 Q 120 70 120 70 L 0 70 Q 0 70 0 70 L 0 0 Q 0 0 0 0 Z" stroke-miterlimit="10" stroke-width="2"/></g></g><g transform="translate(85,0) translate(0,5)"><g transform="translate(0,0) scale(0.3,0.2)"><g><path fill="#FFFFFF" stroke="none" d="M 10 0 L 100 0 Q 100 0 100 0 L 100 100 Q 100 100 100 100 L 10 100 Q 10 100 10 100 L 10 0 Q 10 0 10 0 Z"/><g transform="scale(3.333333,5)"><path fill="none" stroke="#000000" d="M 3 0 L 30 0 Q 30 0 30 0 L 30 20 Q 30 20 30 20 L 3 20 Q 3 20 3 20 L 3 0 Q 3 0 3 0 Z" stroke-miterlimit="10"/></g></g><g><path fill="#FFFFFF" stroke="none" d="M 0 16.67 L 20 16.67 Q 20 16.67 20 16.67 L 20 33.34 Q 20 33.34 20 33.34 L 0 33.34 Q 0 33.34 0 33.34 L 0 16.67 Q 0 16.67 0 16.67 Z"/><g transform="scale(3.333333,5)"><path fill="none" stroke="#000000" d="M 0 3.334 L 6 3.334 Q 6 3.334 6 3.334 L 6 6.668 Q 6 6.668 6 6.668 L 0 6.668 Q 0 6.668 0 6.668 L 0 3.334 Q 0 3.334 0 3.334 Z" stroke-miterlimit="10"/></g></g><g><path fill="#FFFFFF" stroke="none" d="M 0 66.67 L 20 66.67 Q 20 66.67 20 66.67 L 20 83.34 Q 20 83.34 20 83.34 L 0 83.34 Q 0 83.34 0 83.34 L 0 66.67 Q 0 66.67 0 66.67 Z"/><g transform="scale(3.333333,5)"><path fill="none" stroke="#000000" d="M 0 13.334 L 6 13.334 Q 6 13.334 6 13.334 L 6 16.668 Q 6 16.668 6 16.668 L 0 16.668 Q 0 16.668 0 16.668 L 0 13.334 Q 0 13.334 0 13.334 Z" stroke-miterlimit="10"/></g></g></g></g></g></g></g><g transform="scale(1,1) matrix(1,0,0,1,143.8,440) translate(8,28)"><text fill="#000000" stroke="none" font-family="Arial" font-size="12px" font-style="normal" font-weight="normal" text-decoration="none" x="19" y="11">Pacemaker</text></g><g transform="translate(0,0) matrix(1,0,0,1,514.8,500)"><g><g><g><path fill="none" stroke="none" d="M 0 0 L 120 0 Q 120 0 120 0 L 120 70 Q 120 70 120 70 L 0 70 Q 0 70 0 70 L 0 0 Q 0 0 0 0 Z"/><g transform="scale(1,1)"><path fill="#FFFFFF" stroke="#000000" d="M 0 0 L 120 0 Q 120 0 120 0 L 120 70 Q 120 70 120 70 L 0 70 Q 0 70 0 70 L 0 0 Q 0 0 0 0 Z" stroke-miterlimit="10" stroke-width="2"/></g></g><g transform="translate(85,0) translate(0,5)"><g transform="translate(0,0) scale(0.3,0.2)"><g><path fill="#FFFFFF" stroke="none" d="M 10 0 L 100 0 Q 100 0 100 0 L 100 100 Q 100 100 100 100 L 10 100 Q 10 100 10 100 L 10 0 Q 10 0 10 0 Z"/><g transform="scale(3.333333,5)"><path fill="none" stroke="#000000" d="M 3 0 L 30 0 Q 30 0 30 0 L 30 20 Q 30 20 30 20 L 3 20 Q 3 20 3 20 L 3 0 Q 3 0 3 0 Z" stroke-miterlimit="10"/></g></g><g><path fill="#FFFFFF" stroke="none" d="M 0 16.67 L 20 16.67 Q 20 16.67 20 16.67 L 20 33.34 Q 20 33.34 20 33.34 L 0 33.34 Q 0 33.34 0 33.34 L 0 16.67 Q 0 16.67 0 16.67 Z"/><g transform="scale(3.333333,5)"><path fill="none" stroke="#000000" d="M 0 3.334 L 6 3.334 Q 6 3.334 6 3.334 L 6 6.668 Q 6 6.668 6 6.668 L 0 6.668 Q 0 6.668 0 6.668 L 0 3.334 Q 0 3.334 0 3.334 Z" stroke-miterlimit="10"/></g></g><g><path fill="#FFFFFF" stroke="none" d="M 0 66.67 L 20 66.67 Q 20 66.67 20 66.67 L 20 83.34 Q 20 83.34 20 83.34 L 0 83.34 Q 0 83.34 0 83.34 L 0 66.67 Q 0 66.67 0 66.67 Z"/><g transform="scale(3.333333,5)"><path fill="none" stroke="#000000" d="M 0 13.334 L 6 13.334 Q 6 13.334 6 13.334 L 6 16.668 Q 6 16.668 6 16.668 L 0 16.668 Q 0 16.668 0 16.668 L 0 13.334 Q 0 13.334 0 13.334 Z" stroke-miterlimit="10"/></g></g></g></g></g></g></g><g transform="scale(1,1) matrix(1,0,0,1,516.8,500) translate(8,28)"><text fill="#000000" stroke="none" font-family="Arial" font-size="12px" font-style="normal" font-weight="normal" text-decoration="none" x="19" y="11">Pacemaker</text></g><g transform="matrix(1,0,0,1,197.8,251)"><g transform="translate(0,0)"><g transform="translate(-159.8,-283) translate(-38,32) matrix(1,0,0,1,0,0)"><g><path fill="none" stroke="#000000" d="M 201.8 255 L 201.8 316.6666666666667 L 201.8 378.3333333333333 L 201.8 440" stroke-miterlimit="10"/></g></g></g></g><g transform="matrix(1,0,0,1,570.8,356)"><g transform="translate(0,0)"><g transform="translate(-470.79999999999995,-393) translate(-100,37) matrix(1,0,0,1,0,0)"><g><path fill="none" stroke="#000000" d="M 574.8 360 L 574.8 406.6666666666667 L 574.8 453.3333333333333 L 574.8 500" stroke-miterlimit="10"/></g></g></g></g></g></svg>